<svg width="155" height="24" viewBox="0 0 155 24" fill="none" xmlns="http://www.w3.org/2000/svg">
<path d="M33.5 8.09091V10.9318H26.3125V8.09091H33.5ZM27.7045 5.47727H31.625V15.4915C31.625 15.643 31.651 15.7708 31.7031 15.875C31.7552 15.9744 31.8357 16.0502 31.9446 16.1023C32.0535 16.1496 32.1932 16.1733 32.3636 16.1733C32.482 16.1733 32.6193 16.1591 32.7756 16.1307C32.9366 16.1023 33.0549 16.0786 33.1307 16.0597L33.6989 18.8153C33.5237 18.8674 33.2727 18.9313 32.946 19.0071C32.6241 19.0829 32.2405 19.1326 31.7955 19.1562C30.8958 19.2036 30.1406 19.1113 29.5298 18.8793C28.919 18.6425 28.4598 18.2708 28.152 17.7642C27.8442 17.2576 27.6951 16.6231 27.7045 15.8608V5.47727ZM35.0998 19V8.09091H38.9066V10.1648H39.0202C39.2191 9.39773 39.534 8.83665 39.9648 8.48153C40.4004 8.12642 40.9094 7.94886 41.4918 7.94886C41.6623 7.94886 41.8304 7.96307 41.9961 7.99148C42.1665 8.01515 42.3299 8.05066 42.4862 8.09801V11.4432C42.292 11.3769 42.0529 11.3272 41.7688 11.294C41.4847 11.2609 41.2409 11.2443 41.0373 11.2443C40.6538 11.2443 40.3081 11.3319 40.0004 11.5071C39.6973 11.6776 39.4582 11.919 39.283 12.2315C39.1078 12.5393 39.0202 12.9015 39.0202 13.3182V19H35.0998ZM46.3036 19.1705C45.6076 19.1705 44.9921 19.0568 44.457 18.8295C43.9267 18.5975 43.5101 18.2472 43.207 17.7784C42.904 17.3097 42.7525 16.7131 42.7525 15.9886C42.7525 15.392 42.8543 14.883 43.0579 14.4616C43.2615 14.0355 43.5456 13.6875 43.9102 13.4176C44.2747 13.1477 44.6985 12.9418 45.1815 12.7997C45.6692 12.6577 46.1947 12.5653 46.7582 12.5227C47.369 12.4754 47.859 12.4186 48.2283 12.3523C48.6024 12.2812 48.8723 12.1842 49.038 12.0611C49.2037 11.9332 49.2866 11.7652 49.2866 11.5568V11.5284C49.2866 11.2443 49.1777 11.0265 48.9599 10.875C48.7421 10.7235 48.4627 10.6477 48.1218 10.6477C47.7478 10.6477 47.4424 10.7306 47.2056 10.8963C46.9736 11.0573 46.8339 11.3059 46.7866 11.642H43.1786C43.226 10.9792 43.4367 10.3684 43.8107 9.80966C44.1895 9.24621 44.7411 8.7964 45.4656 8.46023C46.19 8.11932 47.0943 7.94886 48.1786 7.94886C48.9599 7.94886 49.6606 8.04119 50.2809 8.22585C50.9012 8.40578 51.4291 8.65909 51.8647 8.9858C52.3003 9.30777 52.6317 9.68655 52.859 10.1222C53.091 10.553 53.207 11.0218 53.207 11.5284V19H49.5423V17.4659H49.457C49.2392 17.8731 48.9741 18.2022 48.6616 18.4531C48.3538 18.7041 48.0011 18.8864 47.6033 19C47.2103 19.1136 46.7771 19.1705 46.3036 19.1705ZM47.582 16.6989C47.8803 16.6989 48.1597 16.6373 48.4201 16.5142C48.6853 16.3911 48.9007 16.2135 49.0664 15.9815C49.2321 15.7495 49.315 15.4678 49.315 15.1364V14.2273C49.2108 14.2699 49.0996 14.3101 48.9812 14.348C48.8675 14.3859 48.7444 14.4214 48.6119 14.4545C48.484 14.4877 48.3467 14.5185 48.1999 14.5469C48.0579 14.5753 47.9087 14.6013 47.7525 14.625C47.4495 14.6723 47.2009 14.7505 47.0067 14.8594C46.8174 14.9635 46.6753 15.0938 46.5806 15.25C46.4906 15.4015 46.4457 15.572 46.4457 15.7614C46.4457 16.0644 46.5522 16.2964 46.7653 16.4574C46.9783 16.6184 47.2506 16.6989 47.582 16.6989ZM59.0007 12.8636V19H55.0803V8.09091H58.8018V10.1648H58.9155C59.1522 9.47348 59.5689 8.93134 60.1655 8.53835C60.7668 8.14536 61.4676 7.94886 62.2678 7.94886C63.0395 7.94886 63.7095 8.12642 64.2777 8.48153C64.8506 8.83191 65.2933 9.31487 65.6058 9.9304C65.9231 10.5459 66.0793 11.2491 66.0746 12.0398V19H62.1541V12.8636C62.1589 12.3239 62.0215 11.9001 61.7422 11.5923C61.4676 11.2846 61.084 11.1307 60.5916 11.1307C60.2696 11.1307 59.9879 11.2017 59.7464 11.3438C59.5097 11.4811 59.3274 11.6799 59.1996 11.9403C59.0717 12.196 59.0054 12.5038 59.0007 12.8636ZM77.9815 11.642H74.3736C74.3546 11.4195 74.2765 11.2277 74.1392 11.0668C74.0019 10.9058 73.8243 10.7827 73.6065 10.6974C73.3935 10.6075 73.1567 10.5625 72.8963 10.5625C72.5601 10.5625 72.2713 10.6241 72.0298 10.7472C71.7884 10.8703 71.67 11.0455 71.6747 11.2727C71.67 11.4337 71.7386 11.5829 71.8807 11.7202C72.0275 11.8575 72.3092 11.964 72.7259 12.0398L74.9418 12.4375C76.0592 12.6411 76.8902 12.9844 77.4347 13.4673C77.9839 13.9455 78.2609 14.5871 78.2656 15.392C78.2609 16.1686 78.0289 16.8433 77.5696 17.4162C77.1151 17.9844 76.4924 18.4247 75.7017 18.7372C74.9157 19.045 74.0185 19.1989 73.0099 19.1989C71.3433 19.1989 70.0388 18.858 69.0966 18.1761C68.1591 17.4943 67.6359 16.5947 67.527 15.4773H71.419C71.4711 15.8229 71.6416 16.0904 71.9304 16.2798C72.224 16.4645 72.5933 16.5568 73.0384 16.5568C73.3982 16.5568 73.6941 16.4953 73.9261 16.3722C74.1629 16.2491 74.2836 16.0739 74.2884 15.8466C74.2836 15.6383 74.1795 15.4725 73.9759 15.3494C73.777 15.2263 73.4645 15.1269 73.0384 15.0511L71.1065 14.7102C69.9938 14.5161 69.1605 14.1468 68.6065 13.6023C68.0526 13.0578 67.7779 12.357 67.7827 11.5C67.7779 10.7424 67.9768 10.1009 68.3793 9.57528C68.7865 9.04498 69.3665 8.64252 70.1193 8.3679C70.8769 8.08854 71.7741 7.94886 72.8111 7.94886C74.3878 7.94886 75.6307 8.27557 76.5398 8.92898C77.4536 9.58239 77.9342 10.4867 77.9815 11.642ZM86.3018 8.09091V10.9318H79.0007V8.09091H86.3018ZM80.3928 19V7.77841C80.3928 6.87879 80.5537 6.13305 80.8757 5.54119C81.1977 4.94934 81.6522 4.50663 82.2393 4.21307C82.8265 3.91951 83.5178 3.77273 84.3132 3.77273C84.8104 3.77273 85.2933 3.81061 85.7621 3.88636C86.2356 3.96212 86.5859 4.02841 86.8132 4.08523L86.245 6.89773C86.103 6.85511 85.9373 6.82197 85.7479 6.7983C85.5585 6.76989 85.3928 6.75568 85.2507 6.75568C84.8814 6.75568 84.6328 6.83381 84.505 6.99006C84.3771 7.14631 84.3132 7.35227 84.3132 7.60795V19H80.3928ZM92.7099 19.1989C91.5451 19.1989 90.5413 18.9763 89.6985 18.5312C88.8604 18.0814 88.2141 17.4375 87.7596 16.5994C87.3098 15.7566 87.0849 14.7481 87.0849 13.5739C87.0849 12.447 87.3121 11.4621 87.7667 10.6193C88.2212 9.77651 88.8628 9.12074 89.6914 8.65199C90.52 8.18324 91.4978 7.94886 92.6246 7.94886C93.4485 7.94886 94.1942 8.0767 94.8619 8.33239C95.5295 8.58807 96.1 8.95975 96.5735 9.44744C97.047 9.9304 97.4116 10.5175 97.6673 11.2088C97.9229 11.9001 98.0508 12.679 98.0508 13.5455V14.4545H88.3065V12.2955H94.4428C94.4381 11.983 94.3576 11.7083 94.2013 11.4716C94.0498 11.2301 93.8439 11.0431 93.5835 10.9105C93.3278 10.7732 93.0366 10.7045 92.7099 10.7045C92.3926 10.7045 92.1014 10.7732 91.8363 10.9105C91.5711 11.0431 91.3581 11.2277 91.1971 11.4645C91.0408 11.7012 90.958 11.9782 90.9485 12.2955V14.625C90.9485 14.9754 91.0219 15.2879 91.1687 15.5625C91.3155 15.8371 91.5262 16.0526 91.8008 16.2088C92.0754 16.3651 92.4068 16.4432 92.7951 16.4432C93.065 16.4432 93.3112 16.4053 93.5337 16.3295C93.761 16.2538 93.9551 16.1449 94.1161 16.0028C94.2771 15.8561 94.3955 15.6809 94.4712 15.4773H98.0508C97.9277 16.2348 97.6365 16.893 97.1772 17.4517C96.7179 18.0057 96.1095 18.4366 95.3519 18.7443C94.5991 19.0473 93.7184 19.1989 92.7099 19.1989ZM99.6506 19V8.09091H103.457V10.1648H103.571C103.77 9.39773 104.085 8.83665 104.516 8.48153C104.951 8.12642 105.46 7.94886 106.043 7.94886C106.213 7.94886 106.381 7.96307 106.547 7.99148C106.717 8.01515 106.881 8.05066 107.037 8.09801V11.4432C106.843 11.3769 106.604 11.3272 106.32 11.294C106.036 11.2609 105.792 11.2443 105.588 11.2443C105.205 11.2443 104.859 11.3319 104.551 11.5071C104.248 11.6776 104.009 11.919 103.834 12.2315C103.659 12.5393 103.571 12.9015 103.571 13.3182V19H99.6506ZM115.482 11.7273V14.6818H108.663V11.7273H115.482ZM120.854 19.1705C120.158 19.1705 119.543 19.0568 119.008 18.8295C118.478 18.5975 118.061 18.2472 117.758 17.7784C117.455 17.3097 117.303 16.7131 117.303 15.9886C117.303 15.392 117.405 14.883 117.609 14.4616C117.812 14.0355 118.096 13.6875 118.461 13.4176C118.826 13.1477 119.249 12.9418 119.732 12.7997C120.22 12.6577 120.746 12.5653 121.309 12.5227C121.92 12.4754 122.41 12.4186 122.779 12.3523C123.153 12.2812 123.423 12.1842 123.589 12.0611C123.754 11.9332 123.837 11.7652 123.837 11.5568V11.5284C123.837 11.2443 123.728 11.0265 123.511 10.875C123.293 10.7235 123.013 10.6477 122.673 10.6477C122.299 10.6477 121.993 10.7306 121.756 10.8963C121.524 11.0573 121.385 11.3059 121.337 11.642H117.729C117.777 10.9792 117.987 10.3684 118.362 9.80966C118.74 9.24621 119.292 8.7964 120.016 8.46023C120.741 8.11932 121.645 7.94886 122.729 7.94886C123.511 7.94886 124.211 8.04119 124.832 8.22585C125.452 8.40578 125.98 8.65909 126.415 8.9858C126.851 9.30777 127.183 9.68655 127.41 10.1222C127.642 10.553 127.758 11.0218 127.758 11.5284V19H124.093V17.4659H124.008C123.79 17.8731 123.525 18.2022 123.212 18.4531C122.905 18.7041 122.552 18.8864 122.154 19C121.761 19.1136 121.328 19.1705 120.854 19.1705ZM122.133 16.6989C122.431 16.6989 122.71 16.6373 122.971 16.5142C123.236 16.3911 123.451 16.2135 123.617 15.9815C123.783 15.7495 123.866 15.4678 123.866 15.1364V14.2273C123.762 14.2699 123.65 14.3101 123.532 14.348C123.418 14.3859 123.295 14.4214 123.163 14.4545C123.035 14.4877 122.897 14.5185 122.751 14.5469C122.609 14.5753 122.46 14.6013 122.303 14.625C122 14.6723 121.752 14.7505 121.558 14.8594C121.368 14.9635 121.226 15.0938 121.131 15.25C121.041 15.4015 120.996 15.572 120.996 15.7614C120.996 16.0644 121.103 16.2964 121.316 16.4574C121.529 16.6184 121.801 16.6989 122.133 16.6989ZM129.631 23.0909V8.09091H133.523V9.99432H133.608C133.75 9.625 133.959 9.28646 134.233 8.97869C134.508 8.66619 134.849 8.41761 135.256 8.23295C135.663 8.04356 136.137 7.94886 136.676 7.94886C137.396 7.94886 138.08 8.14062 138.729 8.52415C139.382 8.90767 139.913 9.51136 140.32 10.3352C140.732 11.1591 140.938 12.2292 140.938 13.5455C140.938 14.8049 140.741 15.849 140.348 16.6776C139.96 17.5062 139.439 18.1241 138.786 18.5312C138.137 18.9384 137.425 19.142 136.648 19.142C136.137 19.142 135.68 19.0592 135.277 18.8935C134.88 18.723 134.539 18.4934 134.255 18.2045C133.975 17.911 133.76 17.5795 133.608 17.2102H133.551V23.0909H129.631ZM133.466 13.5455C133.466 14.0758 133.535 14.535 133.672 14.9233C133.814 15.3068 134.013 15.6051 134.269 15.8182C134.529 16.0265 134.839 16.1307 135.199 16.1307C135.559 16.1307 135.864 16.0289 136.115 15.8253C136.371 15.617 136.565 15.321 136.698 14.9375C136.835 14.5492 136.904 14.0852 136.904 13.5455C136.904 13.0057 136.835 12.544 136.698 12.1605C136.565 11.7723 136.371 11.4763 136.115 11.2727C135.864 11.0644 135.559 10.9602 135.199 10.9602C134.839 10.9602 134.529 11.0644 134.269 11.2727C134.013 11.4763 133.814 11.7723 133.672 12.1605C133.535 12.544 133.466 13.0057 133.466 13.5455ZM142.58 23.0909V8.09091H146.472V9.99432H146.558C146.7 9.625 146.908 9.28646 147.183 8.97869C147.457 8.66619 147.798 8.41761 148.205 8.23295C148.612 8.04356 149.086 7.94886 149.626 7.94886C150.345 7.94886 151.03 8.14062 151.678 8.52415C152.332 8.90767 152.862 9.51136 153.269 10.3352C153.681 11.1591 153.887 12.2292 153.887 13.5455C153.887 14.8049 153.691 15.849 153.298 16.6776C152.909 17.5062 152.388 18.1241 151.735 18.5312C151.086 18.9384 150.374 19.142 149.597 19.142C149.086 19.142 148.629 19.0592 148.227 18.8935C147.829 18.723 147.488 18.4934 147.204 18.2045C146.924 17.911 146.709 17.5795 146.558 17.2102H146.501V23.0909H142.58ZM146.415 13.5455C146.415 14.0758 146.484 14.535 146.621 14.9233C146.763 15.3068 146.962 15.6051 147.218 15.8182C147.478 16.0265 147.789 16.1307 148.148 16.1307C148.508 16.1307 148.814 16.0289 149.065 15.8253C149.32 15.617 149.514 15.321 149.647 14.9375C149.784 14.5492 149.853 14.0852 149.853 13.5455C149.853 13.0057 149.784 12.544 149.647 12.1605C149.514 11.7723 149.32 11.4763 149.065 11.2727C148.814 11.0644 148.508 10.9602 148.148 10.9602C147.789 10.9602 147.478 11.0644 147.218 11.2727C146.962 11.4763 146.763 11.7723 146.621 12.1605C146.484 12.544 146.415 13.0057 146.415 13.5455Z" fill="#1C1C1E"/>
<path d="M17.657 16.657L13.414 20.9C13.2284 21.0858 13.0081 21.2331 12.7656 21.3336C12.523 21.4342 12.2631 21.4859 12.0005 21.4859C11.738 21.4859 11.478 21.4342 11.2354 21.3336C10.9929 21.2331 10.7726 21.0858 10.587 20.9L6.343 16.657C5.22422 15.5382 4.46234 14.1127 4.15369 12.5609C3.84504 11.009 4.00349 9.40053 4.60901 7.93874C5.21452 6.47696 6.2399 5.22755 7.55548 4.34852C8.87107 3.46949 10.4178 3.00031 12 3.00031C13.5822 3.00031 15.1289 3.46949 16.4445 4.34852C17.7601 5.22755 18.7855 6.47696 19.391 7.93874C19.9965 9.40053 20.155 11.009 19.8463 12.5609C19.5377 14.1127 18.7758 15.5382 17.657 16.657V16.657Z" stroke="#1C1C1E" stroke-width="2" stroke-linecap="round" stroke-linejoin="round"/>
<path d="M15 11C15 11.7956 14.6839 12.5587 14.1213 13.1213C13.5587 13.6839 12.7956 14 12 14C11.2044 14 10.4413 13.6839 9.87868 13.1213C9.31607 12.5587 9 11.7956 9 11C9 10.2044 9.31607 9.44129 9.87868 8.87868C10.4413 8.31607 11.2044 8 12 8C12.7956 8 13.5587 8.31607 14.1213 8.87868C14.6839 9.44129 15 10.2044 15 11V11Z" stroke="#1C1C1E" stroke-width="2" stroke-linecap="round" stroke-linejoin="round"/>
</svg>
